<svg width="133" height="46" viewBox="0 0 133 46" fill="none" xmlns="http://www.w3.org/2000/svg">
<circle cx="24.9649" cy="26.2084" r="19.3826" fill="url(#paint0_linear_74_956)" fill-opacity="0.6"/>
<path d="M20.3337 26.037C16.69 21.4823 14.999 19.9197 14.3982 19.5851C14.3174 19.5628 14.2375 19.5408 14.1587 19.5189C14.1976 19.4995 14.275 19.5164 14.3982 19.5851C17.4832 20.4342 22.0176 21.6291 27.3663 30.1536C27.8809 29.1245 30.1108 26.5516 32.3406 16.0884C34.3989 23.4641 31.7917 36.8089 26.1656 45.5911H23.7642C22.1983 45.5911 21.5344 45.2481 21.5344 45.2481C22.9829 40.7787 24.5552 31.3139 20.3337 26.037Z" fill="url(#paint1_linear_74_956)"/>
<ellipse cx="26.3343" cy="22.6147" rx="2.91597" ry="3.60208" transform="rotate(-23.5923 26.3343 22.6147)" fill="url(#paint2_radial_74_956)"/>
<g clip-path="url(#clip0_74_956)">
<g opacity="0.5">
<path d="M6.37741 27.6526C9.54898 27.6526 12.12 25.0816 12.12 21.91C12.12 18.7384 9.54898 16.1674 6.37741 16.1674C3.20583 16.1674 0.634766 18.7384 0.634766 21.91C0.634766 25.0816 3.20583 27.6526 6.37741 27.6526Z" fill="white"/>
</g>
<path d="M6.37741 27.6526C9.54898 27.6526 12.12 25.0816 12.12 21.91C12.12 18.7384 9.54898 16.1674 6.37741 16.1674C3.20583 16.1674 0.634766 18.7384 0.634766 21.91C0.634766 25.0816 3.20583 27.6526 6.37741 27.6526Z" fill="#F7F7F7"/>
<g opacity="0.06">
<path d="M6.37748 16.1674C6.21477 16.1674 6.05206 16.1769 5.89893 16.1865C8.84682 16.4258 11.163 18.8951 11.163 21.91C11.163 24.9249 8.84682 27.3847 5.89893 27.6335C6.06163 27.6431 6.21477 27.6526 6.37748 27.6526C9.5455 27.6526 12.1201 25.078 12.1201 21.91C12.1201 18.742 9.5455 16.1674 6.37748 16.1674Z" fill="#62345B"/>
</g>
<path d="M9.77521 20.8285H7.65043C7.54515 20.8285 7.45901 20.7424 7.45901 20.6371V18.5123C7.45901 18.4071 7.37287 18.3209 7.26759 18.3209H5.48737C5.38209 18.3209 5.29595 18.4071 5.29595 18.5123V20.6371C5.29595 20.7424 5.20981 20.8285 5.10453 20.8285H2.97975C2.87447 20.8285 2.78833 20.9147 2.78833 21.02V22.7906C2.78833 22.8959 2.87447 22.982 2.97975 22.982H5.10453C5.20981 22.982 5.29595 23.0682 5.29595 23.1735V25.2982C5.29595 25.4035 5.38209 25.4897 5.48737 25.4897H7.25802C7.3633 25.4897 7.44944 25.4035 7.44944 25.2982V23.183C7.44944 23.0777 7.53558 22.9916 7.64086 22.9916H9.76564C9.87092 22.9916 9.95706 22.9055 9.95706 22.8002V21.02C9.96663 20.9147 9.88049 20.8285 9.77521 20.8285Z" fill="#F1657C"/>
</g>
<g clip-path="url(#clip1_74_956)">
<g opacity="0.5">
<path d="M19.6025 11.8681C22.7741 11.8681 25.3451 9.29703 25.3451 6.12545C25.3451 2.95388 22.7741 0.382812 19.6025 0.382812C16.4309 0.382812 13.8599 2.95388 13.8599 6.12545C13.8599 9.29703 16.4309 11.8681 19.6025 11.8681Z" fill="white"/>
</g>
<path d="M19.6025 11.8681C22.7741 11.8681 25.3451 9.29703 25.3451 6.12545C25.3451 2.95388 22.7741 0.382812 19.6025 0.382812C16.4309 0.382812 13.8599 2.95388 13.8599 6.12545C13.8599 9.29703 16.4309 11.8681 19.6025 11.8681Z" fill="#F7F7F7"/>
<g opacity="0.06">
<path d="M19.6026 0.382812C19.4399 0.382812 19.2772 0.392384 19.124 0.401955C22.0719 0.641231 24.3881 3.11057 24.3881 6.12545C24.3881 9.14034 22.0719 11.6001 19.124 11.849C19.2867 11.8585 19.4399 11.8681 19.6026 11.8681C22.7706 11.8681 25.3452 9.29348 25.3452 6.12545C25.3452 2.95743 22.7706 0.382812 19.6026 0.382812Z" fill="#62345B"/>
</g>
</g>
<path d="M21.7635 5.10527C22.4795 6.72265 22.0868 8.46455 20.8864 8.99593C19.686 9.5273 18.1325 8.64691 17.4165 7.02953C16.7006 5.41215 16.4442 4.83314 17.8075 2.04068C19.7598 2.92766 21.0476 3.48789 21.7635 5.10527Z" fill="#75AA42"/>
<path d="M19.0877 4.91786C18.9877 5.87222 20.5553 9.43425 20.6427 9.61993L21.5135 9.23819C21.2338 8.644 19.9076 6.2709 19.0877 4.91786Z" fill="#F7F7F7"/>
<g clip-path="url(#clip2_74_956)">
<g opacity="0.5">
<path d="M42.913 22.6637C39.8206 22.6637 37.3137 20.1568 37.3137 17.0645C37.3137 13.9721 39.8206 11.4652 42.913 11.4652C46.0053 11.4652 48.5122 13.9721 48.5122 17.0645C48.5122 20.1568 46.0053 22.6637 42.913 22.6637Z" fill="white"/>
</g>
<path d="M42.913 22.6637C39.8206 22.6637 37.3137 20.1568 37.3137 17.0645C37.3137 13.9721 39.8206 11.4652 42.913 11.4652C46.0053 11.4652 48.5122 13.9721 48.5122 17.0645C48.5122 20.1568 46.0053 22.6637 42.913 22.6637Z" fill="#F7F7F7"/>
<g opacity="0.06">
<path d="M42.9128 11.4652C43.0714 11.4652 43.2301 11.4745 43.3794 11.4839C40.5051 11.7172 38.2467 14.1249 38.2467 17.0645C38.2467 20.0041 40.5051 22.4024 43.3794 22.6451C43.2207 22.6544 43.0714 22.6637 42.9128 22.6637C39.8239 22.6637 37.3135 20.1534 37.3135 17.0645C37.3135 13.9755 39.8239 11.4652 42.9128 11.4652Z" fill="#62345B"/>
</g>
<path d="M48.2923 15.93C48.1649 15.0225 47.4008 14.3141 46.4853 14.2504C45.8167 14.2106 45.2117 14.5051 44.8296 14.9827C44.7739 15.0464 44.6784 15.0464 44.6227 14.9827C44.2406 14.5051 43.6356 14.2106 42.967 14.2504C42.0356 14.3141 41.2635 15.0464 41.16 15.9778C41.1361 16.1927 41.1441 16.3996 41.1919 16.5987C41.3988 17.7927 42.362 18.9867 44.3281 20.1887C44.5351 20.316 44.7978 20.316 45.0048 20.1966C46.9232 19.0345 47.9818 17.8802 48.2525 16.7181C48.3082 16.4713 48.3321 16.2006 48.2923 15.93Z" fill="#E074A3"/>
<path d="M44.4318 19.2813C44.3761 19.2813 44.3363 19.2415 44.3363 19.1937L44.0418 16.9251L43.6915 18.135C43.6756 18.1748 43.6438 18.2067 43.596 18.2067C43.5562 18.2067 43.5164 18.1748 43.5005 18.135L43.1582 16.9967L42.9115 17.4903C42.8955 17.5221 42.8637 17.546 42.8239 17.546H41.4627C41.407 17.546 41.3672 17.4982 41.3672 17.4505C41.3672 17.4027 41.4149 17.3549 41.4627 17.3549H42.7602L43.0945 16.6942C43.1105 16.6544 43.1503 16.6385 43.1901 16.6385C43.2299 16.6385 43.2617 16.6704 43.2776 16.7102L43.596 17.7609L43.9781 16.4156C43.994 16.3679 44.0338 16.344 44.0816 16.344C44.1294 16.344 44.1692 16.3838 44.1692 16.4316L44.4637 18.6286L44.8776 16.8853C44.8856 16.8375 44.9333 16.8057 44.9731 16.8057C45.0209 16.8057 45.0607 16.8375 45.0687 16.8853L45.2517 17.737L45.4189 17.3947C45.4348 17.3629 45.4667 17.339 45.5065 17.339H47.9661C48.0219 17.339 48.0617 17.3868 48.0617 17.4345C48.0617 17.4823 48.0139 17.5301 47.9661 17.5301H45.5701L45.2995 18.0713C45.2836 18.1111 45.2358 18.1271 45.196 18.1271C45.1562 18.1191 45.1164 18.0873 45.1085 18.0475L44.9652 17.3629L44.5274 19.2017C44.5194 19.2494 44.4796 19.2813 44.4318 19.2813Z" fill="white"/>
<path opacity="0.2" d="M44.6626 20.2841C44.782 20.2841 44.8934 20.2523 44.9969 20.1886C46.9153 19.0264 47.974 17.8722 48.2447 16.71C48.3083 16.4633 48.3322 16.2006 48.2924 15.93C48.1651 15.0225 47.4009 14.314 46.4855 14.2504C47.2656 16.1449 46.7482 18.1429 44.6626 20.2841Z" fill="#502D4B"/>
</g>
<path d="M56.6916 28.5887V17.3116H64.2904V19.2774H59.0759V21.9645H63.8995V23.9303H59.0759V26.623H64.3125V28.5887H56.6916ZM68.3939 28.7484C67.8542 28.7484 67.3734 28.6548 66.9512 28.4676C66.529 28.2767 66.195 27.9959 65.949 27.6251C65.7067 27.2507 65.5856 26.7845 65.5856 26.2265C65.5856 25.7566 65.6719 25.362 65.8444 25.0426C66.0169 24.7232 66.2519 24.4663 66.5492 24.2717C66.8466 24.0771 67.1843 23.9303 67.5624 23.8312C67.9442 23.7321 68.3443 23.6623 68.7628 23.622C69.2547 23.5706 69.6512 23.5228 69.9522 23.4788C70.2532 23.4311 70.4716 23.3613 70.6075 23.2695C70.7433 23.1778 70.8112 23.0419 70.8112 22.8621V22.829C70.8112 22.4803 70.7011 22.2105 70.4808 22.0196C70.2642 21.8287 69.9559 21.7332 69.5557 21.7332C69.1336 21.7332 68.7977 21.8269 68.5481 22.0141C68.2984 22.1976 68.1332 22.4289 68.0525 22.7079L65.8829 22.5317C65.9931 22.0177 66.2097 21.5736 66.5327 21.1991C66.8557 20.821 67.2724 20.531 67.7827 20.3291C68.2966 20.1235 68.8913 20.0207 69.5667 20.0207C70.0366 20.0207 70.4863 20.0758 70.9158 20.1859C71.349 20.2961 71.7326 20.4668 72.0667 20.698C72.4044 20.9293 72.6705 21.2267 72.8651 21.5901C73.0597 21.9498 73.1569 22.3812 73.1569 22.8841V28.5887H70.9323V27.4159H70.8663C70.7304 27.6802 70.5487 27.9133 70.3211 28.1152C70.0935 28.3134 69.82 28.4694 69.5007 28.5832C69.1813 28.6934 68.8124 28.7484 68.3939 28.7484ZM69.0657 27.1295C69.4107 27.1295 69.7154 27.0616 69.9797 26.9258C70.244 26.7863 70.4514 26.5991 70.602 26.3641C70.7525 26.1292 70.8277 25.8631 70.8277 25.5657V24.6682C70.7543 24.7159 70.6533 24.7599 70.5249 24.8003C70.4001 24.837 70.2587 24.8719 70.1009 24.9049C69.943 24.9343 69.7852 24.9618 69.6273 24.9875C69.4695 25.0096 69.3263 25.0298 69.1978 25.0481C68.9225 25.0885 68.682 25.1527 68.4765 25.2408C68.2709 25.3289 68.1112 25.4482 67.9974 25.5988C67.8836 25.7456 67.8267 25.9291 67.8267 26.1494C67.8267 26.4688 67.9423 26.7129 68.1736 26.8818C68.4086 27.0469 68.7059 27.1295 69.0657 27.1295ZM79.3156 20.1309V21.8929H74.2222V20.1309H79.3156ZM75.3786 18.1045H77.7243V25.9897C77.7243 26.2063 77.7573 26.3752 77.8234 26.4963C77.8895 26.6138 77.9813 26.6964 78.0987 26.7441C78.2199 26.7918 78.3594 26.8157 78.5172 26.8157C78.6273 26.8157 78.7375 26.8065 78.8476 26.7881C78.9577 26.7661 79.0422 26.7496 79.1009 26.7386L79.4698 28.4841C79.3524 28.5208 79.1872 28.563 78.9742 28.6108C78.7613 28.6622 78.5025 28.6934 78.1978 28.7044C77.6325 28.7264 77.1369 28.6512 76.7111 28.4786C76.289 28.3061 75.9604 28.0381 75.7255 27.6747C75.4905 27.3113 75.3749 26.8524 75.3786 26.2981V18.1045Z" fill="#8865ED"/>
<path d="M83.2663 28.5887L80.0395 17.3116H82.6441L84.5107 25.1472H84.6043L86.6637 17.3116H88.8939L90.9477 25.1637H91.0469L92.9135 17.3116H95.5181L92.2913 28.5887H89.9676L87.8201 21.2156H87.732L85.59 28.5887H83.2663ZM96.5902 28.5887V20.1309H98.936V28.5887H96.5902ZM97.7686 19.0406C97.4199 19.0406 97.1207 18.925 96.8711 18.6937C96.6251 18.4588 96.5021 18.1779 96.5021 17.8512C96.5021 17.5282 96.6251 17.251 96.8711 17.0197C97.1207 16.7848 97.4199 16.6673 97.7686 16.6673C98.1174 16.6673 98.4147 16.7848 98.6607 17.0197C98.9103 17.251 99.0351 17.5282 99.0351 17.8512C99.0351 18.1779 98.9103 18.4588 98.6607 18.6937C98.4147 18.925 98.1174 19.0406 97.7686 19.0406ZM107.692 22.5427L105.545 22.6748C105.508 22.4913 105.429 22.3261 105.308 22.1793C105.187 22.0288 105.027 21.9095 104.829 21.8213C104.634 21.7296 104.401 21.6837 104.13 21.6837C103.766 21.6837 103.46 21.7608 103.21 21.915C102.96 22.0655 102.836 22.2674 102.836 22.5207C102.836 22.7226 102.916 22.8933 103.078 23.0328C103.239 23.1723 103.517 23.2842 103.909 23.3687L105.44 23.677C106.263 23.8459 106.876 24.1175 107.279 24.492C107.683 24.8664 107.885 25.3583 107.885 25.9677C107.885 26.522 107.722 27.0084 107.395 27.4269C107.072 27.8454 106.628 28.1721 106.062 28.407C105.501 28.6383 104.853 28.7539 104.119 28.7539C102.999 28.7539 102.107 28.5208 101.443 28.0546C100.782 27.5847 100.394 26.946 100.281 26.1384L102.588 26.0172C102.658 26.3586 102.826 26.6193 103.094 26.7992C103.362 26.9754 103.706 27.0635 104.124 27.0635C104.535 27.0635 104.866 26.9845 105.115 26.8267C105.369 26.6652 105.497 26.4578 105.501 26.2045C105.497 25.9915 105.407 25.8172 105.231 25.6814C105.055 25.5419 104.783 25.4354 104.416 25.362L102.951 25.0701C102.125 24.9049 101.51 24.6186 101.107 24.2111C100.707 23.8037 100.506 23.2842 100.506 22.6528C100.506 22.1095 100.653 21.6415 100.947 21.2487C101.244 20.8559 101.661 20.553 102.197 20.3401C102.737 20.1272 103.368 20.0207 104.091 20.0207C105.159 20.0207 106 20.2465 106.613 20.698C107.23 21.1496 107.59 21.7645 107.692 22.5427ZM113.057 28.7539C112.187 28.7539 111.438 28.5777 110.81 28.2253C110.186 27.8692 109.705 27.3663 109.367 26.7166C109.03 26.0631 108.861 25.2904 108.861 24.3984C108.861 23.5283 109.03 22.7648 109.367 22.1077C109.705 21.4506 110.181 20.9385 110.794 20.5714C111.41 20.2043 112.134 20.0207 112.963 20.0207C113.521 20.0207 114.041 20.1107 114.521 20.2906C115.006 20.4668 115.428 20.7329 115.788 21.089C116.151 21.4451 116.434 21.8929 116.636 22.4326C116.838 22.9685 116.939 23.5963 116.939 24.3158V24.96H109.797V23.5063H114.731C114.731 23.1686 114.657 22.8694 114.51 22.6088C114.364 22.3481 114.16 22.1444 113.899 21.9976C113.642 21.847 113.343 21.7718 113.002 21.7718C112.646 21.7718 112.33 21.8544 112.055 22.0196C111.783 22.1811 111.57 22.3995 111.416 22.6748C111.262 22.9465 111.183 23.2493 111.179 23.5834V24.9655C111.179 25.384 111.256 25.7456 111.41 26.0503C111.568 26.355 111.79 26.5899 112.077 26.7551C112.363 26.9203 112.703 27.0029 113.095 27.0029C113.356 27.0029 113.595 26.9662 113.811 26.8928C114.028 26.8193 114.213 26.7092 114.367 26.5624C114.521 26.4155 114.639 26.2357 114.72 26.0228L116.889 26.1659C116.779 26.6872 116.553 27.1424 116.212 27.5315C115.874 27.917 115.437 28.218 114.901 28.4346C114.369 28.6475 113.754 28.7539 113.057 28.7539ZM120.655 17.3116V28.5887H118.31V17.3116H120.655ZM123.823 31.7604C123.525 31.7604 123.246 31.7366 122.986 31.6889C122.729 31.6448 122.516 31.5879 122.347 31.5182L122.876 29.7671C123.151 29.8516 123.399 29.8974 123.619 29.9048C123.843 29.9121 124.036 29.8607 124.197 29.7506C124.362 29.6405 124.496 29.4533 124.599 29.1889L124.737 28.831L121.703 20.1309H124.17L125.921 26.3421H126.009L127.776 20.1309H130.26L126.972 29.5028C126.815 29.958 126.6 30.3545 126.328 30.6922C126.06 31.0336 125.721 31.2961 125.309 31.4796C124.898 31.6668 124.403 31.7604 123.823 31.7604Z" fill="#6583ED"/>
<defs>
<linearGradient id="paint0_linear_74_956" x1="24.9649" y1="45.591" x2="24.9649" y2="6.82581" gradientUnits="userSpaceOnUse">
<stop stop-color="#C2A5F9"/>
<stop offset="1" stop-color="#A5B7F9"/>
</linearGradient>
<linearGradient id="paint1_linear_74_956" x1="23.6114" y1="16.0884" x2="23.6114" y2="45.5911" gradientUnits="userSpaceOnUse">
<stop stop-color="#F44336"/>
<stop offset="1" stop-color="#F97600"/>
</linearGradient>
<radialGradient id="paint2_radial_74_956" cx="0" cy="0" r="1" gradientUnits="userSpaceOnUse" gradientTransform="translate(26.3343 22.6147) rotate(89.0657) scale(4.13872 3.35039)">
<stop stop-color="#F97600"/>
<stop offset="1" stop-color="#F44336"/>
</radialGradient>
<clipPath id="clip0_74_956">
<rect width="12.251" height="12.251" fill="white" transform="translate(0.251953 15.7845)"/>
</clipPath>
<clipPath id="clip1_74_956">
<rect width="12.251" height="12.251" fill="white" transform="translate(13.4768)"/>
</clipPath>
<clipPath id="clip2_74_956">
<rect width="11.9451" height="11.9451" fill="white" transform="matrix(-1 0 0 1 48.8855 11.0919)"/>
</clipPath>
</defs>
</svg>
