<svg width="171" height="59" viewBox="0 0 171 59" fill="none" xmlns="http://www.w3.org/2000/svg">
<circle cx="32.131" cy="33.9167" r="25.0834" fill="url(#paint0_linear_11_410)" fill-opacity="0.6"/>
<path d="M26.1375 33.6947C21.4221 27.8005 19.2338 25.7783 18.4563 25.3452C18.3517 25.3165 18.2484 25.288 18.1464 25.2596C18.1967 25.2344 18.2968 25.2564 18.4563 25.3452C22.4487 26.4441 28.3167 27.9904 35.2386 39.0222C35.9045 37.6903 38.7902 34.3607 41.6759 20.8201C44.3396 30.3651 40.9656 47.6349 33.6847 59.0001H30.5771C28.5505 59.0001 27.6914 58.5562 27.6914 58.5562C29.5659 52.7723 31.6007 40.5237 26.1375 33.6947Z" fill="url(#paint1_linear_11_410)"/>
<ellipse cx="33.9031" cy="29.266" rx="3.77361" ry="4.66151" transform="rotate(-23.5923 33.9031 29.266)" fill="url(#paint2_radial_11_410)"/>
<g clip-path="url(#clip0_11_410)">
<g opacity="0.5">
<path d="M8.0768 35.7857C12.1812 35.7857 15.5085 32.4585 15.5085 28.3541C15.5085 24.2497 12.1812 20.9224 8.0768 20.9224C3.97241 20.9224 0.645142 24.2497 0.645142 28.3541C0.645142 32.4585 3.97241 35.7857 8.0768 35.7857Z" fill="white"/>
</g>
<path d="M8.0768 35.7857C12.1812 35.7857 15.5085 32.4585 15.5085 28.3541C15.5085 24.2497 12.1812 20.9224 8.0768 20.9224C3.97241 20.9224 0.645142 24.2497 0.645142 28.3541C0.645142 32.4585 3.97241 35.7857 8.0768 35.7857Z" fill="#F7F7F7"/>
<g opacity="0.06">
<path d="M8.07682 20.9224C7.86626 20.9224 7.6557 20.9348 7.45752 20.9472C11.2724 21.2568 14.2699 24.4524 14.2699 28.3541C14.2699 32.2557 11.2724 35.4389 7.45752 35.7609C7.66808 35.7733 7.86626 35.7857 8.07682 35.7857C12.1766 35.7857 15.5085 32.4539 15.5085 28.3541C15.5085 24.2543 12.1766 20.9224 8.07682 20.9224Z" fill="#62345B"/>
</g>
<path d="M12.4737 26.9544H9.72402C9.58777 26.9544 9.4763 26.843 9.4763 26.7067V23.957C9.4763 23.8208 9.36482 23.7093 9.22858 23.7093H6.92476C6.78852 23.7093 6.67704 23.8208 6.67704 23.957V26.7067C6.67704 26.843 6.56557 26.9544 6.42932 26.9544H3.67961C3.54336 26.9544 3.43188 27.0659 3.43188 27.2022V29.4936C3.43188 29.6298 3.54336 29.7413 3.67961 29.7413H6.42932C6.56557 29.7413 6.67704 29.8528 6.67704 29.989V32.7387C6.67704 32.875 6.78852 32.9865 6.92476 32.9865H9.21619C9.35244 32.9865 9.46391 32.875 9.46391 32.7387V30.0014C9.46391 29.8652 9.57539 29.7537 9.71163 29.7537H12.4613C12.5976 29.7537 12.7091 29.6422 12.7091 29.506V27.2022C12.7215 27.0659 12.61 26.9544 12.4737 26.9544Z" fill="#F1657C"/>
</g>
<g clip-path="url(#clip1_11_410)">
<g opacity="0.5">
<path d="M25.1914 15.3586C29.2958 15.3586 32.6231 12.0313 32.6231 7.92694C32.6231 3.82255 29.2958 0.495289 25.1914 0.495289C21.087 0.495289 17.7598 3.82255 17.7598 7.92694C17.7598 12.0313 21.087 15.3586 25.1914 15.3586Z" fill="white"/>
</g>
<path d="M25.1914 15.3586C29.2958 15.3586 32.6231 12.0313 32.6231 7.92694C32.6231 3.82255 29.2958 0.495289 25.1914 0.495289C21.087 0.495289 17.7598 3.82255 17.7598 7.92694C17.7598 12.0313 21.087 15.3586 25.1914 15.3586Z" fill="#F7F7F7"/>
<g opacity="0.06">
<path d="M25.1914 0.495289C24.9809 0.495289 24.7703 0.507675 24.5721 0.520061C28.3871 0.829713 31.3845 4.02532 31.3845 7.92694C31.3845 11.8286 28.3871 15.0118 24.5721 15.3338C24.7827 15.3462 24.9809 15.3586 25.1914 15.3586C29.2912 15.3586 32.6231 12.0267 32.6231 7.92694C32.6231 3.82715 29.2912 0.495289 25.1914 0.495289Z" fill="#62345B"/>
</g>
</g>
<path d="M27.9881 6.60676C28.9146 8.69984 28.4064 10.9541 26.8529 11.6417C25.2995 12.3294 23.289 11.1901 22.3625 9.09699C21.436 7.00391 21.1043 6.25459 22.8686 2.64082C25.3951 3.78868 27.0616 4.51368 27.9881 6.60676Z" fill="#75AA42"/>
<path d="M24.5255 6.36425C24.3961 7.5993 26.4247 12.209 26.5378 12.4493L27.6648 11.9553C27.3029 11.1863 25.5866 8.11524 24.5255 6.36425Z" fill="#F7F7F7"/>
<g clip-path="url(#clip2_11_410)">
<g opacity="0.5">
<path d="M55.358 29.3293C51.3561 29.3293 48.1119 26.0851 48.1119 22.0832C48.1119 18.0813 51.3561 14.8371 55.358 14.8371C59.3599 14.8371 62.6041 18.0813 62.6041 22.0832C62.6041 26.0851 59.3599 29.3293 55.358 29.3293Z" fill="white"/>
</g>
<path d="M55.358 29.3293C51.3561 29.3293 48.1119 26.0851 48.1119 22.0832C48.1119 18.0813 51.3561 14.8371 55.358 14.8371C59.3599 14.8371 62.6041 18.0813 62.6041 22.0832C62.6041 26.0851 59.3599 29.3293 55.358 29.3293Z" fill="#F7F7F7"/>
<g opacity="0.06">
<path d="M55.3581 14.8371C55.5634 14.8371 55.7687 14.8492 55.9619 14.8613C52.2423 15.1632 49.3197 18.279 49.3197 22.0832C49.3197 25.8874 52.2423 28.9911 55.9619 29.3051C55.7566 29.3172 55.5634 29.3293 55.3581 29.3293C51.3606 29.3293 48.112 26.0806 48.112 22.0832C48.112 18.0858 51.3606 14.8371 55.3581 14.8371Z" fill="#62345B"/>
</g>
<path d="M62.3195 20.6152C62.1547 19.4408 61.1658 18.524 59.9811 18.4416C59.1158 18.3901 58.3329 18.7712 57.8384 19.3893C57.7663 19.4717 57.6427 19.4717 57.5706 19.3893C57.0761 18.7712 56.2932 18.3901 55.4279 18.4416C54.2227 18.524 53.2234 19.4717 53.0895 20.677C53.0586 20.9551 53.0689 21.223 53.1307 21.4805C53.3985 23.0257 54.645 24.5709 57.1894 26.1264C57.4573 26.2912 57.7972 26.2912 58.0651 26.1367C60.5477 24.6327 61.9178 23.139 62.268 21.635C62.3401 21.3157 62.371 20.9654 62.3195 20.6152Z" fill="#E074A3"/>
<path d="M57.3234 24.9521C57.2513 24.9521 57.1998 24.9006 57.1998 24.8388L56.8187 21.9029L56.3654 23.4687C56.3448 23.5202 56.3036 23.5614 56.2418 23.5614C56.1903 23.5614 56.1388 23.5202 56.1182 23.4687L55.6752 21.9956L55.3559 22.6343C55.3353 22.6755 55.2941 22.7064 55.2426 22.7064H53.481C53.4089 22.7064 53.3574 22.6446 53.3574 22.5828C53.3574 22.521 53.4192 22.4591 53.481 22.4591H55.1602L55.5928 21.6041C55.6134 21.5526 55.6649 21.532 55.7164 21.532C55.7679 21.532 55.8091 21.5732 55.8297 21.6247L56.2418 22.9845L56.7363 21.2436C56.7569 21.1818 56.8084 21.1509 56.8702 21.1509C56.932 21.1509 56.9835 21.2024 56.9835 21.2642L57.3646 24.1074L57.9003 21.8514C57.9106 21.7896 57.9724 21.7484 58.0239 21.7484C58.0857 21.7484 58.1372 21.7896 58.1476 21.8514L58.3845 22.9536L58.6008 22.5107C58.6214 22.4695 58.6626 22.4385 58.7141 22.4385H61.8972C61.9694 22.4385 62.0209 22.5004 62.0209 22.5622C62.0209 22.624 61.959 22.6858 61.8972 22.6858H58.7965L58.4463 23.3863C58.4257 23.4378 58.3639 23.4584 58.3124 23.4584C58.2609 23.4481 58.2094 23.4069 58.1991 23.3554L58.0136 22.4694L57.4471 24.8491C57.4368 24.9109 57.3853 24.9521 57.3234 24.9521Z" fill="white"/>
<path opacity="0.2" d="M57.6222 26.2499C57.7767 26.2499 57.9209 26.2087 58.0548 26.1263C60.5375 24.6223 61.9076 23.1286 62.2578 21.6246C62.3402 21.3053 62.3711 20.9653 62.3196 20.6151C62.1548 19.4407 61.1659 18.5239 59.9812 18.4415C60.9907 20.8932 60.3211 23.4789 57.6222 26.2499Z" fill="#502D4B"/>
</g>
<path d="M73.189 36.5854V21.9914H83.0228V24.5354H76.2745V28.0129H82.5168V30.5568H76.2745V34.0414H83.0513V36.5854H73.189ZM88.3331 36.792C87.6348 36.792 87.0124 36.6709 86.4661 36.4286C85.9198 36.1816 85.4875 35.8182 85.1692 35.3384C84.8556 34.8538 84.6989 34.2505 84.6989 33.5284C84.6989 32.9203 84.8105 32.4096 85.0338 31.9963C85.2571 31.583 85.5611 31.2504 85.9459 30.9986C86.3307 30.7469 86.7678 30.5568 87.2571 30.4286C87.7512 30.3003 88.269 30.21 88.8106 30.1578C89.4471 30.0913 89.9602 30.0295 90.3498 29.9725C90.7393 29.9107 91.022 29.8205 91.1978 29.7017C91.3735 29.583 91.4614 29.4072 91.4614 29.1744V29.1316C91.4614 28.6803 91.3189 28.3312 91.0339 28.0841C90.7536 27.8371 90.3545 27.7136 89.8367 27.7136C89.2904 27.7136 88.8557 27.8347 88.5326 28.077C88.2096 28.3145 87.9958 28.6138 87.8913 28.9749L85.0837 28.7468C85.2262 28.0817 85.5065 27.5069 85.9245 27.0224C86.3426 26.533 86.8818 26.1577 87.5421 25.8965C88.2072 25.6304 88.9768 25.4974 89.8509 25.4974C90.459 25.4974 91.041 25.5687 91.5968 25.7112C92.1574 25.8537 92.6538 26.0746 93.0861 26.3739C93.5232 26.6732 93.8676 27.058 94.1194 27.5283C94.3712 27.9939 94.4971 28.5521 94.4971 29.2029V36.5854H91.6182V35.0676H91.5327C91.3569 35.4096 91.1217 35.7113 90.8272 35.9726C90.5327 36.2291 90.1787 36.431 89.7654 36.5783C89.3521 36.7208 88.8747 36.792 88.3331 36.792ZM89.2025 34.697C89.649 34.697 90.0433 34.6091 90.3854 34.4334C90.7274 34.2528 90.9958 34.0105 91.1906 33.7065C91.3854 33.4025 91.4828 33.058 91.4828 32.6732V31.5117C91.3878 31.5735 91.2571 31.6305 91.0909 31.6827C90.9293 31.7302 90.7464 31.7754 90.5422 31.8181C90.3379 31.8561 90.1336 31.8918 89.9293 31.925C89.7251 31.9535 89.5398 31.9796 89.3735 32.0034C89.0172 32.0557 88.706 32.1388 88.44 32.2528C88.174 32.3668 87.9673 32.5212 87.82 32.716C87.6728 32.906 87.5991 33.1436 87.5991 33.4286C87.5991 33.8419 87.7488 34.1578 88.0481 34.3763C88.3521 34.5901 88.7369 34.697 89.2025 34.697ZM102.467 25.6399V27.9202H95.8757V25.6399H102.467ZM97.3721 23.0176H100.408V33.2219C100.408 33.5022 100.451 33.7208 100.536 33.8775C100.622 34.0295 100.74 34.1364 100.892 34.1982C101.049 34.26 101.23 34.2908 101.434 34.2908C101.576 34.2908 101.719 34.279 101.861 34.2552C102.004 34.2267 102.113 34.2053 102.189 34.1911L102.667 36.45C102.515 36.4975 102.301 36.5521 102.025 36.6139C101.75 36.6804 101.415 36.7208 101.021 36.735C100.289 36.7635 99.6477 36.6662 99.0966 36.4429C98.5503 36.2196 98.1251 35.8728 97.821 35.4025C97.517 34.9322 97.3674 34.3383 97.3721 33.621V23.0176Z" fill="#8865ED"/>
<path d="M107.58 36.5854L103.404 21.9914H106.775L109.19 32.1317H109.311L111.976 21.9914H114.862L117.52 32.153H117.649L120.064 21.9914H123.435L119.259 36.5854H116.252L113.473 27.0437H113.359L110.587 36.5854H107.58ZM124.823 36.5854V25.6399H127.858V36.5854H124.823ZM126.347 24.229C125.896 24.229 125.509 24.0793 125.186 23.78C124.868 23.476 124.709 23.1126 124.709 22.6898C124.709 22.2717 124.868 21.913 125.186 21.6138C125.509 21.3097 125.896 21.1577 126.347 21.1577C126.799 21.1577 127.184 21.3097 127.502 21.6138C127.825 21.913 127.986 22.2717 127.986 22.6898C127.986 23.1126 127.825 23.476 127.502 23.78C127.184 24.0793 126.799 24.229 126.347 24.229ZM139.19 28.7611L136.411 28.9321C136.363 28.6946 136.261 28.4808 136.104 28.2908C135.948 28.096 135.741 27.9416 135.484 27.8276C135.233 27.7088 134.931 27.6494 134.579 27.6494C134.109 27.6494 133.712 27.7492 133.389 27.9487C133.066 28.1435 132.905 28.4048 132.905 28.7326C132.905 28.9939 133.009 29.2148 133.218 29.3953C133.427 29.5758 133.786 29.7207 134.294 29.83L136.275 30.229C137.34 30.4476 138.133 30.7991 138.656 31.2837C139.178 31.7682 139.439 32.4048 139.439 33.1934C139.439 33.9108 139.228 34.5402 138.805 35.0818C138.387 35.6234 137.812 36.0462 137.081 36.3502C136.354 36.6495 135.515 36.7992 134.565 36.7992C133.116 36.7992 131.962 36.4975 131.102 35.8942C130.247 35.2861 129.746 34.4595 129.598 33.4143L132.584 33.2576C132.674 33.6994 132.893 34.0367 133.24 34.2695C133.587 34.4975 134.031 34.6115 134.572 34.6115C135.104 34.6115 135.532 34.5094 135.855 34.3051C136.183 34.0961 136.349 33.8276 136.354 33.4999C136.349 33.2243 136.233 32.9987 136.005 32.8229C135.777 32.6424 135.425 32.5046 134.95 32.4096L133.055 32.0319C131.986 31.8181 131.19 31.4476 130.667 30.9203C130.149 30.3929 129.891 29.7207 129.891 28.9036C129.891 28.2005 130.081 27.5948 130.461 27.0865C130.845 26.5782 131.385 26.1862 132.078 25.9107C132.777 25.6352 133.594 25.4974 134.53 25.4974C135.912 25.4974 137 25.7896 137.793 26.3739C138.591 26.9582 139.057 27.754 139.19 28.7611ZM146.132 36.7992C145.006 36.7992 144.037 36.5711 143.225 36.1151C142.417 35.6543 141.795 35.0034 141.358 34.1626C140.921 33.317 140.702 32.3169 140.702 31.1625C140.702 30.0366 140.921 29.0485 141.358 28.1981C141.795 27.3478 142.41 26.6851 143.203 26.21C144.001 25.7349 144.937 25.4974 146.011 25.4974C146.733 25.4974 147.405 25.6138 148.028 25.8466C148.655 26.0746 149.201 26.419 149.667 26.8798C150.137 27.3406 150.503 27.9202 150.764 28.6186C151.025 29.3122 151.156 30.1245 151.156 31.0556V31.8894H141.914V30.0081H148.298C148.298 29.5711 148.203 29.1839 148.013 28.8466C147.823 28.5093 147.56 28.2456 147.222 28.0556C146.89 27.8608 146.503 27.7635 146.061 27.7635C145.6 27.7635 145.192 27.8703 144.835 28.0841C144.484 28.2932 144.208 28.5758 144.009 28.9321C143.809 29.2837 143.707 29.6756 143.702 30.1079V31.8965C143.702 32.4381 143.802 32.906 144.001 33.3003C144.206 33.6946 144.493 33.9987 144.864 34.2124C145.234 34.4262 145.674 34.5331 146.182 34.5331C146.519 34.5331 146.828 34.4856 147.108 34.3906C147.389 34.2956 147.629 34.1531 147.828 33.963C148.028 33.773 148.18 33.5402 148.284 33.2647L151.092 33.45C150.949 34.1246 150.657 34.7136 150.215 35.2172C149.778 35.716 149.213 36.1056 148.519 36.3859C147.83 36.6614 147.035 36.7992 146.132 36.7992ZM155.966 21.9914V36.5854H152.93V21.9914H155.966ZM160.065 40.6899C159.68 40.6899 159.319 40.6591 158.981 40.5973C158.649 40.5403 158.373 40.4667 158.155 40.3764L158.839 38.1103C159.195 38.2196 159.516 38.279 159.801 38.2885C160.091 38.298 160.34 38.2315 160.549 38.089C160.763 37.9465 160.936 37.7042 161.069 37.3621L161.248 36.8989L157.321 25.6399H160.514L162.78 33.678H162.894L165.181 25.6399H168.395L164.141 37.7683C163.936 38.3574 163.658 38.8705 163.307 39.3075C162.96 39.7493 162.521 40.089 161.989 40.3265C161.457 40.5688 160.815 40.6899 160.065 40.6899Z" fill="#6583ED"/>
<defs>
<linearGradient id="paint0_linear_11_410" x1="32.131" y1="59.0001" x2="32.131" y2="8.83333" gradientUnits="userSpaceOnUse">
<stop stop-color="#C2A5F9"/>
<stop offset="1" stop-color="#A5B7F9"/>
</linearGradient>
<linearGradient id="paint1_linear_11_410" x1="30.3793" y1="20.8201" x2="30.3793" y2="59.0001" gradientUnits="userSpaceOnUse">
<stop stop-color="#F44336"/>
<stop offset="1" stop-color="#F97600"/>
</linearGradient>
<radialGradient id="paint2_radial_11_410" cx="0" cy="0" r="1" gradientUnits="userSpaceOnUse" gradientTransform="translate(33.9031 29.266) rotate(89.0657) scale(5.35599 4.3358)">
<stop stop-color="#F97600"/>
<stop offset="1" stop-color="#F44336"/>
</radialGradient>
<clipPath id="clip0_11_410">
<rect width="15.8542" height="15.8542" fill="white" transform="translate(0.149658 20.427)"/>
</clipPath>
<clipPath id="clip1_11_410">
<rect width="15.8542" height="15.8542" fill="white" transform="translate(17.2642 -9.15527e-05)"/>
</clipPath>
<clipPath id="clip2_11_410">
<rect width="15.4583" height="15.4583" fill="white" transform="matrix(-1 0 0 1 63.0873 14.3541)"/>
</clipPath>
</defs>
</svg>
